<?xml version="1.0" encoding="iso-8859-1"?>
<!-- Generator: Adobe Illustrator 19.0.0, SVG Export Plug-In . SVG Version: 6.00 Build 0)  -->
<svg version="1.1" id="Layer_1" xmlns="http://www.w3.org/2000/svg" xmlns:xlink="http://www.w3.org/1999/xlink" x="0px" y="0px"
	 viewBox="0 0 512 512" style="enable-background:new 0 0 512 512;" xml:space="preserve">
<g>
	<g>
		<g>
			<path d="M506.047,309.814H5.953c-3.288,0-5.953,2.665-5.953,5.953v29.679c0,23.016,18.658,41.674,41.674,41.674h147.094
				l-18.305,75.482h-22.615c-9.864,0-17.86,7.997-17.86,17.86c0,9.864,7.997,17.86,17.86,17.86h216.302
				c9.864,0,17.86-7.997,17.86-17.86c0-9.864-7.997-17.86-17.86-17.86h-22.615l-18.305-75.482h147.094
				c23.016,0,41.674-18.658,41.674-41.674v-29.679C512,312.48,509.334,309.814,506.047,309.814z"/>
			<path d="M374.041,214.616h-81.87c-6.576,0-11.907,5.331-11.907,11.907c0,6.576,5.331,11.907,11.907,11.907h81.87
				c6.576,0,11.907-5.331,11.907-11.907C385.948,219.946,380.617,214.616,374.041,214.616z"/>
			<path d="M374.041,169.227h-81.87c-6.576,0-11.907,5.331-11.907,11.907c0,6.576,5.331,11.907,11.907,11.907h81.87
				c6.576,0,11.907-5.331,11.907-11.907C385.948,174.559,380.617,169.227,374.041,169.227z"/>
			<path d="M239.273,169.227H137.959c-6.576,0-11.907,5.331-11.907,11.907v45.388c0,6.576,5.331,11.907,11.907,11.907h101.314
				c6.576,0,11.907-5.331,11.907-11.907v-45.388C251.18,174.559,245.849,169.227,239.273,169.227z"/>
			<path d="M470.645,13.684v-0.008h-0.319c-8.969,0-414.737,0-428.651,0h-0.319v0.008C18.487,13.857,0,32.441,0,55.35v224.697
				C0,283.335,2.666,286,5.953,286c9.006,0,480.439,0,500.093,0c3.289,0,5.953-2.665,5.953-5.953V55.35
				C512,32.441,493.513,13.857,470.645,13.684z M440.761,256.233c0,3.289-2.666,5.953-5.953,5.953H77.193
				c-3.288,0-5.953-2.665-5.953-5.953V43.443c0-3.289,2.666-5.953,5.953-5.953h357.614c3.288,0,5.953,2.666,5.953,5.953V256.233z"/>
			<path d="M374.041,61.248H137.959c-6.576,0-11.907,5.331-11.907,11.907v58.478c0,6.576,5.331,11.907,11.907,11.907h236.082
				c6.576,0,11.907-5.331,11.907-11.907V73.155C385.948,66.578,380.617,61.248,374.041,61.248z"/>
		</g>
	</g>
</g>
<g>
</g>
<g>
</g>
<g>
</g>
<g>
</g>
<g>
</g>
<g>
</g>
<g>
</g>
<g>
</g>
<g>
</g>
<g>
</g>
<g>
</g>
<g>
</g>
<g>
</g>
<g>
</g>
<g>
</g>
</svg>
