<svg xmlns="http://www.w3.org/2000/svg" xmlns:xlink="http://www.w3.org/1999/xlink" viewBox="0 0 374.6 374.6"><defs><style>.cls-1,.cls-2{fill:#fff;}.cls-2{font-size:35.59px;stroke:#000;font-family:PassionOne-Regular, Passion;font-weight:700;}.cls-2,.cls-4,.cls-6{stroke-miterlimit:10;}.cls-3{clip-path:url(#clip-path);}.cls-4{font-size:202.92px;}.cls-4,.cls-6{stroke:#fff;font-family:AGaramondPro-Regular, Adobe Garamond Pro;}.cls-5{font-size:7.96px;}.cls-6{font-size:205.01px;}</style><clipPath id="clip-path"><circle class="cls-1" cx="187.3" cy="186.82" r="95.62"/></clipPath></defs><title>brandonsweblogo</title><g id="Layer_2" data-name="Layer 2"><g id="Layer_3" data-name="Layer 3"><path d="M187.3,291.23a104.6,104.6,0,1,1,104.6-104.6A104.72,104.72,0,0,1,187.3,291.23Z"/><path class="cls-1" d="M187.3,82.53A104.1,104.1,0,1,1,83.2,186.63,104.22,104.22,0,0,1,187.3,82.53m0-1a105.1,105.1,0,1,0,105.1,105.1A105.1,105.1,0,0,0,187.3,81.53Z"/><text class="cls-2" transform="matrix(0.72, -0.69, 0.69, 0.72, 105.3, 118.92)">W</text><text class="cls-2" transform="translate(122.38 103.18) rotate(-33.99)">E</text><text class="cls-2" transform="translate(133.59 95.44) rotate(-25.64)">B</text><text class="cls-2" transform="translate(149 88.32) rotate(-19.18)"> </text><text class="cls-2" transform="translate(155.32 85.73) rotate(-12.43)">D</text><text class="cls-2" transform="translate(172.82 81.98) rotate(-3.9)">E</text><text class="cls-2" transform="translate(186.41 80.97) rotate(3.66)">S</text><text class="cls-2" transform="translate(200.93 82.02) rotate(10.06)">I</text><text class="cls-2" transform="translate(210.03 83.31) rotate(17.27)">G</text><text class="cls-2" transform="matrix(0.89, 0.45, -0.45, 0.89, 226.83, 88.42)">N</text><text class="cls-2" transform="translate(243.17 96.85) rotate(35.57)">E</text><text class="cls-2" transform="matrix(0.72, 0.69, -0.69, 0.72, 254.32, 104.61)">R</text><text class="cls-2" transform="translate(266.36 116.51) rotate(50.26)"> </text><text class="cls-2" transform="matrix(0.53, 0.85, -0.85, 0.53, 271.09, 121.34)">&amp;</text><text class="cls-2" transform="translate(281.93 139.29) rotate(65.05)"> </text><text class="cls-2" transform="translate(284.93 145.71) rotate(68.89)"> </text><text class="cls-2" transform="translate(287.96 151.73) rotate(77.07)">W</text><text class="cls-2" transform="matrix(0.05, 1, -1, 0.05, 292.83, 174.48)">E</text><text class="cls-2" transform="translate(293.71 188.03) rotate(95.18)">B</text><text class="cls-2" transform="translate(291.93 204.9) rotate(101.57)"> </text><text class="cls-2" transform="translate(290.91 211.69) rotate(108.26)">D</text><text class="cls-2" transform="translate(285.22 228.63) rotate(116.71)">E</text><text class="cls-2" transform="translate(279.29 240.84) rotate(125.03)">V</text><text class="cls-2" transform="translate(269.39 254.84) rotate(133.38)">E</text><text class="cls-2" transform="matrix(-0.77, 0.64, -0.64, -0.77, 259.97, 264.8)">L</text><text class="cls-2" transform="matrix(-0.85, 0.52, -0.52, -0.85, 250.82, 272.73)">O</text><text class="cls-2" transform="translate(235.25 282.23) rotate(157.59)">P</text><text class="cls-2" transform="translate(220.69 288.22) rotate(165.57)">E</text><text class="cls-2" transform="matrix(-0.99, 0.11, -0.11, -0.99, 207.59, 291.77)">R</text><text class="cls-2" transform="matrix(-1, 0, 0, -1, 190.72, 293.35)"> </text><text class="cls-2" transform="matrix(-0.99, -0.1, 0.1, -0.99, 183.82, 293.52)">-</text><text class="cls-2" transform="translate(170.13 291.99) rotate(-168.66)"> </text><text class="cls-2" transform="matrix(-0.95, -0.3, 0.3, -0.95, 163.31, 290.95)">B</text><text class="cls-2" transform="translate(147.36 285.92) rotate(-153.27)">R</text><text class="cls-2" transform="matrix(-0.81, -0.59, 0.59, -0.81, 132.41, 278.47)">A</text><text class="cls-2" transform="translate(118.7 268.75) rotate(-134.65)">N</text><text class="cls-2" transform="matrix(-0.57, -0.82, 0.82, -0.57, 105.78, 255.75)">D</text><text class="cls-2" transform="matrix(-0.43, -0.9, 0.9, -0.43, 95.5, 241.22)">O</text><text class="cls-2" transform="translate(87.63 224.81) rotate(-105.45)">N</text><text class="cls-2" transform="translate(82.99 206.84) rotate(-98.56)"> </text><text class="cls-2" transform="matrix(-0.05, -1, 1, -0.05, 81.74, 200.05)">S</text><text class="cls-2" transform="matrix(0.08, -1, 1, 0.08, 81.02, 185.63)">C</text><text class="cls-2" transform="translate(81.96 171.88) rotate(-76.53)">O</text><text class="cls-2" transform="matrix(0.38, -0.93, 0.93, 0.38, 86.32, 154.11)">T</text><text class="cls-2" transform="translate(91.49 141.25) rotate(-60.45)">T</text><circle class="cls-1" cx="187.3" cy="186.82" r="95.62"/><g class="cls-3"><text class="cls-4" transform="translate(95.09 222.05)">B<tspan class="cls-5" x="122.76" y="0"> </tspan></text><text class="cls-6" transform="translate(177.98 291.84)">S</text></g></g></g></svg>