<svg xmlns="http://www.w3.org/2000/svg" viewBox="0 0 786.56 786.56"><defs><style>.cls-1{font-size:399.65px;}.cls-1,.cls-3{fill:#fff;font-family:AGaramondPro-Regular, Adobe Garamond Pro;}.cls-2{font-size:15.67px;}.cls-3{font-size:403.78px;}.cls-4{fill:none;stroke:#000;stroke-miterlimit:10;stroke-width:10px;}.cls-5{font-size:75px;font-family:PassionOne-Regular, Passion;font-weight:700;}</style></defs><title>BrandonsLogo</title><g id="Layer_2" data-name="Layer 2"><g id="Layer_1-2" data-name="Layer 1"><circle cx="393.28" cy="392.29" r="188.32"/><text class="cls-1" transform="translate(211.68 461.67)">B<tspan class="cls-2" x="241.79" y="0"> </tspan></text><text class="cls-3" transform="translate(374.93 599.13)">S</text><circle class="cls-4" cx="393.28" cy="391.89" r="221.49"/><text class="cls-5" transform="translate(220.48 249.2) rotate(-43.6)">W</text><text class="cls-5" transform="translate(256.55 215.97) rotate(-33.99)">E</text><text class="cls-5" transform="matrix(0.9, -0.43, 0.43, 0.9, 280.1, 199.71)">B</text><text class="cls-5" transform="translate(312.57 184.71) rotate(-19.18)"> </text><text class="cls-5" transform="matrix(0.98, -0.22, 0.22, 0.98, 325.89, 179.25)">D</text><text class="cls-5" transform="translate(362.76 171.35) rotate(-3.9)">E</text><text class="cls-5" transform="matrix(1, 0.06, -0.06, 1, 391.4, 169.23)">S</text><text class="cls-5" transform="translate(421.99 171.43) rotate(10.06)">I</text><text class="cls-5" transform="translate(441.22 174.16) rotate(17.29)">G</text><text class="cls-5" transform="translate(476.6 184.93) rotate(26.93)">N</text><text class="cls-5" transform="translate(511.06 202.71) rotate(35.58)">E</text><text class="cls-5" transform="translate(534.55 219.07) rotate(43.83)">R</text><text class="cls-5" transform="translate(559.93 244.16) rotate(50.27)"> </text><text class="cls-5" transform="matrix(0.53, 0.85, -0.85, 0.53, 569.88, 254.33)">&amp;</text><text class="cls-5" transform="translate(592.73 292.16) rotate(65.06)"> </text><text class="cls-5" transform="translate(599.05 305.7) rotate(68.9)"> </text><text class="cls-5" transform="matrix(0.22, 0.97, -0.97, 0.22, 605.43, 318.41)">W</text><text class="cls-5" transform="translate(615.68 366.32) rotate(87.02)">E</text><text class="cls-5" transform="translate(617.53 394.9) rotate(95.2)">B</text><text class="cls-5" transform="translate(613.76 430.47) rotate(101.59)"> </text><text class="cls-5" transform="translate(611.62 444.74) rotate(108.27)">D</text><text class="cls-5" transform="translate(599.61 480.47) rotate(116.73)">E</text><text class="cls-5" transform="translate(587.09 506.21) rotate(125.05)">V</text><text class="cls-5" transform="translate(566.23 535.7) rotate(133.39)">E</text><text class="cls-5" transform="translate(546.4 556.65) rotate(140.4)">L</text><text class="cls-5" transform="matrix(-0.85, 0.52, -0.52, -0.85, 527.11, 573.36)">O</text><text class="cls-5" transform="translate(494.26 593.41) rotate(157.61)">P</text><text class="cls-5" transform="translate(463.61 605.99) rotate(165.58)">E</text><text class="cls-5" transform="matrix(-0.99, 0.11, -0.11, -0.99, 435.95, 613.47)">R</text><text class="cls-5" transform="translate(400.45 616.8) rotate(-179.76)"> </text><text class="cls-5" transform="translate(385.81 617.14) rotate(-174.18)">-</text><text class="cls-5" transform="matrix(-0.98, -0.2, 0.2, -0.98, 356.96, 613.91)"> </text><text class="cls-5" transform="translate(342.66 611.72) rotate(-162.24)">B</text><text class="cls-5" transform="translate(309.01 601.09) rotate(-153.24)">R</text><text class="cls-5" transform="matrix(-0.81, -0.59, 0.59, -0.81, 277.49, 585.37)">A</text><text class="cls-5" transform="matrix(-0.7, -0.71, 0.71, -0.7, 248.6, 564.87)">N</text><text class="cls-5" transform="matrix(-0.57, -0.82, 0.82, -0.57, 221.42, 537.47)">D</text><text class="cls-5" transform="translate(199.77 506.84) rotate(-115.32)">O</text><text class="cls-5" transform="translate(183.2 472.26) rotate(-105.43)">N</text><text class="cls-5" transform="matrix(-0.15, -0.99, 0.99, -0.15, 173.44, 434.39)"> </text><text class="cls-5" transform="matrix(-0.05, -1, 1, -0.05, 170.8, 420.05)">S</text><text class="cls-5" transform="translate(169.3 389.64) rotate(-85.09)">C</text><text class="cls-5" transform="translate(171.3 360.68) rotate(-76.5)">O</text><text class="cls-5" transform="translate(180.52 323.24) rotate(-67.89)">T</text><text class="cls-5" transform="matrix(0.49, -0.87, 0.87, 0.49, 191.42, 296.14)">T</text></g></g></svg>