<?xml version="1.0" encoding="iso-8859-1"?>
<!-- Generator: Adobe Illustrator 19.0.0, SVG Export Plug-In . SVG Version: 6.00 Build 0)  -->
<svg version="1.1" id="Capa_1" xmlns="http://www.w3.org/2000/svg" xmlns:xlink="http://www.w3.org/1999/xlink" x="0px" y="0px"
	 viewBox="0 0 489.6 489.6" style="enable-background:new 0 0 489.6 489.6;" xml:space="preserve">
<g>
	<g>
		<path d="M444.8,0h-400C19.8,0,0,19.8,0,44.8v400c0,25,19.8,44.8,44.8,44.8h400c25,0,44.8-19.8,44.8-44.8v-400
			C489.6,19.8,469.8,0,444.8,0z M449,444.8c0,2.1-2.1,4.2-4.2,4.2h-400c-2.1,0-4.2-2.1-4.2-4.2v-400c0-2.1,2.1-4.2,4.2-4.2h400
			c2.1,0,4.2,2.1,4.2,4.2V444.8z"/>
		<path d="M179.2,291.7l-46.9-46.9l46.9-46.9c8.3-8.3,8.3-20.8,0-29.2c-8.3-8.3-20.8-8.3-29.2,0l-61.5,61.5
			c-8.3,8.3-8.3,20.8,0,29.2l61.5,61.5c7.8,7.7,19.2,9,29.2,0C187.9,312.9,187.5,300,179.2,291.7z"/>
		<path d="M339.6,168.7c-8.3-8.3-20.8-8.3-29.2,0s-8.3,20.8,0,29.2l46.9,46.9l-46.9,46.9c-8.3,8.3-8.2,20.7,0,29.2
			c7.5,7.7,20.6,9.1,29.2,0l61.5-61.5c8.2-8.2,10.4-18.4,0-29.2L339.6,168.7z"/>
		<path d="M294.8,130.2c-10.4-4.2-22.9,0-27.1,10.4l-83.3,189.6c-4.2,10.4,0,22.9,10.4,27.1c9,4.3,21.5,2.1,27.1-10.4l83.3-189.6
			C309.4,146.9,305.2,134.4,294.8,130.2z"/>
	</g>
</g>
<g>
</g>
<g>
</g>
<g>
</g>
<g>
</g>
<g>
</g>
<g>
</g>
<g>
</g>
<g>
</g>
<g>
</g>
<g>
</g>
<g>
</g>
<g>
</g>
<g>
</g>
<g>
</g>
<g>
</g>
</svg>
