<?xml version="1.0" encoding="iso-8859-1"?>
<!-- Generator: Adobe Illustrator 19.0.0, SVG Export Plug-In . SVG Version: 6.00 Build 0)  -->
<svg version="1.1" id="Capa_1" xmlns="http://www.w3.org/2000/svg" xmlns:xlink="http://www.w3.org/1999/xlink" x="0px" y="0px"
	 viewBox="0 0 489 489" style="enable-background:new 0 0 489 489;" xml:space="preserve">
<g>
	<g>
		<g>
			<path d="M448.4,0.5H40.6C17.7,0.5,0,19.2,0,41.1v283c0,22.9,18.7,40.6,40.6,40.6h183.1v82.2H154c-11.4,0-20.8,9.4-20.8,20.8
				s9.4,20.8,20.8,20.8h181c11.4,0,20.8-9.4,20.8-20.8s-9.4-20.8-20.8-20.8h-69.7v-82.2h183.1c22.9,0,40.6-17.7,40.6-40.6v-283
				C489,18.2,470.3,0.5,448.4,0.5z M448.4,324.1H40.6v-283h407.8V324.1z"/>
		</g>
		<g>
			<path d="M151.5,161.4c-11.1,0-20.1-9-20.1-20.1s9-20.1,20.1-20.1c5.6,0,10.8,2.2,14.6,6.3c5.1,5.4,13.5,5.6,18.9,0.6
				c5.4-5.1,5.6-13.5,0.6-18.9c-8.8-9.4-21.3-14.7-34.1-14.7c-25.8,0-46.8,21-46.8,46.8s21,46.8,46.8,46.8c11.1,0,20.1,9,20.1,20.1
				s-9,20.1-20.1,20.1c-5.6,0-10.8-2.2-14.6-6.3c-5.1-5.4-13.5-5.6-18.9-0.6c-5.4,5.1-5.6,13.5-0.6,18.9
				c8.8,9.4,21.3,14.7,34.1,14.7c25.8,0,46.8-21,46.8-46.8C198.4,182.5,177.4,161.4,151.5,161.4z"/>
			<path d="M273,121.3c7.4,0,13.4-6,13.4-13.4s-6-13.4-13.4-13.4h-52.8c-7.4,0-13.4,6-13.4,13.4v133.8c0,7.4,6,13.4,13.4,13.4H273
				c7.4,0,13.4-6,13.4-13.4s-6-13.4-13.4-13.4h-39.5v-40.1h39.4c7.4,0,13.4-6,13.4-13.4s-6-13.4-13.4-13.4h-39.4v-40.1L273,121.3
				L273,121.3z"/>
			<path d="M338.1,94.5c-25.5,0-46.2,35.9-46.2,80.3s20.7,80.3,46.2,80.3s46.2-35.9,46.2-80.3S363.6,94.5,338.1,94.5z M338.1,228.3
				c-11.4,0-20.7-24-20.7-53.5s9.3-53.5,20.7-53.5s20.7,24,20.7,53.5C358.8,204.4,349.5,228.3,338.1,228.3z"/>
		</g>
	</g>
</g>
<g>
</g>
<g>
</g>
<g>
</g>
<g>
</g>
<g>
</g>
<g>
</g>
<g>
</g>
<g>
</g>
<g>
</g>
<g>
</g>
<g>
</g>
<g>
</g>
<g>
</g>
<g>
</g>
<g>
</g>
</svg>
