<svg xmlns="http://www.w3.org/2000/svg" viewBox="0 0 59 40.19">
  <title>email</title>
  <g id="Layer_2" data-name="Layer 2">
    <g id="Layer_5" data-name="Layer 5">
      <g>
        <path d="M0,3.7l.34-1,21.13,19.9L.6,38.14,0,36.59Q0,20.14,0,3.7Z"/>
        <path d="M59,36.59l-.6,1.55L37.53,22.58,58.65,2.68l.35,1Z"/>
        <path d="M2.91.18C3.53.12,4.14,0,4.76,0H52.24c.89,0,1.79,0,2.68,0a9.78,9.78,0,0,1,1.29.23L53.16,3.16,43,12.74c-2.84,2.68-5.68,5.36-8.54,8a12.57,12.57,0,0,1-2.21,1.73,5.61,5.61,0,0,1-6.43-.62c-1.88-1.66-3.69-3.4-5.52-5.11L9.45,6.57,3.06.52A1.56,1.56,0,0,0,2.87.39Z"/>
        <path d="M2.7,39.78l2.82-2.1,9.54-7.12c2.68-2,5.37-4,8-6a.4.4,0,0,1,.6,0,9.17,9.17,0,0,0,6.36,2,9,9,0,0,0,5.16-1.94c.29-.23.47-.27.79,0,2.5,1.89,5,3.76,7.54,5.63l6.53,4.85,6.14,4.59a1.82,1.82,0,0,1,.18.24,19,19,0,0,1-2.05.23H12.77c-2.72,0-5.43,0-8.15,0A17.35,17.35,0,0,1,2.72,40Z"/>
      </g>
    </g>
  </g>
</svg>
