<svg xmlns="http://www.w3.org/2000/svg" viewBox="0 0 69.89 68.18">
  <title>github</title>
  <g id="Layer_2" data-name="Layer 2">
    <g id="Layer_5" data-name="Layer 5">
      <path d="M65.21,17.41A34.79,34.79,0,0,0,52.49,4.69,34.18,34.18,0,0,0,34.95,0,34.18,34.18,0,0,0,17.41,4.69,34.79,34.79,0,0,0,4.69,17.41,34.18,34.18,0,0,0,0,34.95,34,34,0,0,0,6.67,55.49,34.23,34.23,0,0,0,23.89,68.12a2,2,0,0,0,1.82-.32,1.78,1.78,0,0,0,.59-1.36q0-.14,0-2.46t0-4l-1,.18a13.35,13.35,0,0,1-2.53.16,19.24,19.24,0,0,1-3.16-.32,7.07,7.07,0,0,1-3-1.36,5.77,5.77,0,0,1-2-2.8l-.46-1a11.37,11.37,0,0,0-1.43-2.32,5.49,5.49,0,0,0-2-1.73l-.32-.23a3.34,3.34,0,0,1-.59-.55,2.5,2.5,0,0,1-.41-.64q-.14-.32.23-.52a3,3,0,0,1,1.32-.2l.91.14A6.64,6.64,0,0,1,14,49.78a7.34,7.34,0,0,1,2.21,2.37A8,8,0,0,0,18.72,55a5.36,5.36,0,0,0,3,1,12.94,12.94,0,0,0,2.59-.23,9.05,9.05,0,0,0,2-.68,7.37,7.37,0,0,1,2.23-4.69,31.16,31.16,0,0,1-4.66-.82,18.57,18.57,0,0,1-4.28-1.78,12.25,12.25,0,0,1-3.66-3,14.65,14.65,0,0,1-2.39-4.78,22.72,22.72,0,0,1-.93-6.83,13.27,13.27,0,0,1,3.6-9.37,12.23,12.23,0,0,1,.32-9.28,6.38,6.38,0,0,1,3.91.61,27.36,27.36,0,0,1,3.8,1.75q1.21.73,1.93,1.23a32.86,32.86,0,0,1,17.47,0L45.41,17a24.49,24.49,0,0,1,4.19-2,6,6,0,0,1,3.69-.5q2,5.14.36,9.28a13.27,13.27,0,0,1,3.6,9.37A23,23,0,0,1,56.31,40a14.08,14.08,0,0,1-2.41,4.78,12.72,12.72,0,0,1-3.69,3,18.61,18.61,0,0,1-4.28,1.77,31.12,31.12,0,0,1-4.66.82q2.37,2,2.37,6.46v9.6a1.81,1.81,0,0,0,.57,1.36,2,2,0,0,0,1.8.32A34.22,34.22,0,0,0,63.23,55.49a34,34,0,0,0,6.67-20.54A34.21,34.21,0,0,0,65.21,17.41Z"/>
    </g>
  </g>
</svg>
