<svg xmlns="http://www.w3.org/2000/svg" viewBox="0 0 57.64 57.61">
  <defs>
    <style>
      .cls-1 {
        fill: none;
      }
    </style>
  </defs>
  <title>linkedin</title>
  <g id="Layer_2" data-name="Layer 2">
    <g id="Layer_5" data-name="Layer 5">
      <g>
        <path d="M52.73,0H4.91C1.48,0,0,1.45,0,4.85Q0,28.77,0,52.68c0,3.47,1.47,4.93,5,4.93H52.68c3.48,0,5-1.46,5-4.93q0-11.9,0-23.8t0-24C57.64,1.46,56.16,0,52.73,0ZM15.84,49.41c-2.11-.05-4.21,0-6.32,0-.9,0-1.3-.29-1.3-1.25q0-12.75,0-25.5c0-.88.24-1.3,1.24-1.27,2.15.07,4.29.07,6.44,0,1,0,1.31.38,1.3,1.35,0,4.25,0,8.5,0,12.74s0,8.34,0,12.51C17.23,49,16.9,49.44,15.84,49.41ZM12.7,18a5.16,5.16,0,0,1,0-10.32,5.26,5.26,0,0,1,5.19,5.18A5.25,5.25,0,0,1,12.7,18ZM48.12,49.42c-2.1-.06-4.21-.06-6.31,0-1.06,0-1.39-.37-1.38-1.42.05-4.33,0-8.66,0-13a19,19,0,0,0-.26-3c-.36-2.05-1.54-3.21-3.27-3.36-2.7-.22-4.46.59-5.11,2.7a16.74,16.74,0,0,0-.65,4.52c-.08,4.09,0,8.17,0,12.26,0,.94-.28,1.31-1.22,1.29-2.19,0-4.37,0-6.56,0-.82,0-1.13-.33-1.13-1.16q0-12.87,0-25.73c0-.84.33-1.13,1.16-1.11,2,0,4,.07,6.07,0,1.09,0,1.46.36,1.36,1.4-.06.56,0,1.13,0,2,3.23-4,7.22-4.73,11.67-3.69a8,8,0,0,1,6.29,6.65,28.61,28.61,0,0,1,.66,5.53c.1,4.89,0,9.79.06,14.68C49.5,49,49.21,49.45,48.12,49.42Z"/>
        <path class="cls-1" d="M49.49,48c0,1-.28,1.47-1.37,1.44-2.1-.06-4.21-.06-6.31,0-1.06,0-1.39-.37-1.38-1.42.05-4.33,0-8.66,0-13a19,19,0,0,0-.26-3c-.36-2.05-1.54-3.21-3.27-3.36-2.7-.22-4.46.59-5.11,2.7a16.74,16.74,0,0,0-.65,4.52c-.08,4.09,0,8.17,0,12.26,0,.94-.28,1.31-1.22,1.29-2.19,0-4.37,0-6.56,0-.82,0-1.13-.33-1.13-1.16q0-12.87,0-25.73c0-.84.33-1.13,1.16-1.11,2,0,4,.07,6.07,0,1.09,0,1.46.36,1.36,1.4-.06.56,0,1.13,0,2,3.23-4,7.22-4.73,11.67-3.69a8,8,0,0,1,6.29,6.65,28.61,28.61,0,0,1,.66,5.53C49.53,38.19,49.45,43.09,49.49,48Z"/>
        <path class="cls-1" d="M17.22,48c0,1-.32,1.45-1.38,1.42-2.11-.05-4.21,0-6.32,0-.9,0-1.3-.29-1.3-1.25q0-12.75,0-25.5c0-.88.24-1.3,1.24-1.27,2.15.07,4.29.07,6.44,0,1,0,1.31.38,1.3,1.35,0,4.25,0,8.5,0,12.74S17.17,43.82,17.22,48Z"/>
        <path class="cls-1" d="M17.93,12.81A5.25,5.25,0,0,1,12.7,18a5.16,5.16,0,0,1,0-10.32A5.26,5.26,0,0,1,17.93,12.81Z"/>
      </g>
    </g>
  </g>
</svg>
