<?xml version="1.0" encoding="utf-8"?>
<!-- Generator: Adobe Illustrator 21.0.0, SVG Export Plug-In . SVG Version: 6.00 Build 0)  -->
<svg version="1.1" id="Layer_1" xmlns="http://www.w3.org/2000/svg" xmlns:xlink="http://www.w3.org/1999/xlink" x="0px" y="0px"
	 viewBox="0 0 469.9 469.9" style="enable-background:new 0 0 469.9 469.9;" xml:space="preserve">
<style type="text/css">
	.st0{font-family:'PassionOne-Bold';}
	.st1{font-size:47.7602px;}
	.st2{fill:#FFFFFF;}
	.st3{clip-path:url(#SVGID_2_);}
	.st4{font-family:'AGaramondPro-Regular';}
	.st5{font-size:309.8219px;}
	.st6{fill:none;stroke:#FFFFFF;stroke-miterlimit:10;}
	.st7{font-size:313.0235px;}
</style>
<title>Logo</title>
<g id="Layer_1-2">
	<circle cx="234.9" cy="235.1" r="154.6"/>
	<text transform="matrix(0.722 -0.6919 0.6919 0.722 113.211 132.5204)" class="st0 st1">W</text>
	<text transform="matrix(0.8291 -0.559 0.559 0.8291 136.8332 109.6132)" class="st0 st1">E</text>
	<text transform="matrix(0.9017 -0.4324 0.4324 0.9017 154.6604 97.4669)" class="st0 st1">B</text>
	<text transform="matrix(0.9778 -0.2095 0.2095 0.9778 187.103 82.9814)" class="st0 st1">D</text>
	<text transform="matrix(0.9977 -6.766704e-02 6.766704e-02 0.9977 212.3082 77.3985)" class="st0 st1">E</text>
	<text transform="matrix(0.9979 6.435814e-02 -6.435814e-02 0.9979 233.8251 75.9047)" class="st0 st1">S</text>
	<text transform="matrix(0.9845 0.1754 -0.1754 0.9845 255.5172 77.48)" class="st0 st1">I</text>
	<text transform="matrix(0.9546 0.2979 -0.2979 0.9546 267.9414 79.0278)" class="st0 st1">G</text>
	<text transform="matrix(0.8912 0.4535 -0.4535 0.8912 294.0146 87.0713)" class="st0 st1">N</text>
	<text transform="matrix(0.8127 0.5827 -0.5827 0.8127 318.4141 99.6855)" class="st0 st1">E</text>
	<text transform="matrix(0.7208 0.6932 -0.6932 0.7208 335.9314 111.9796)" class="st0 st1">R</text>
	<text transform="matrix(0.5291 0.8486 -0.8486 0.5291 360.0091 136.2835)" class="st0 st1">&amp;</text>
	<text transform="matrix(0.2222 0.975 -0.975 0.2222 385.1342 181.663)" class="st0 st1">W</text>
	<text transform="matrix(5.041863e-02 0.9987 -0.9987 5.041863e-02 392.3448 213.9164)" class="st0 st1">E</text>
	<text transform="matrix(-8.963770e-02 0.996 -0.996 -8.963770e-02 393.6258 235.8594)" class="st0 st1">B</text>
	<text transform="matrix(-0.3152 0.949 -0.949 -0.3152 389.3827 271.1434)" class="st0 st1">D</text>
	<text transform="matrix(-0.4515 0.8923 -0.8923 -0.4515 380.8323 296.4314)" class="st0 st1">E</text>
	<text transform="matrix(-0.5775 0.8164 -0.8164 -0.5775 371.9382 314.6382)" class="st0 st1">V</text>
	<text transform="matrix(-0.6869 0.7267 -0.7267 -0.6869 358.8226 334.1859)" class="st0 st1">E</text>
	<text transform="matrix(-0.769 0.6392 -0.6392 -0.769 343.4475 350.0999)" class="st0 st1">L</text>
	<text transform="matrix(-0.853 0.5219 -0.5219 -0.853 328.157 362.3968)" class="st0 st1">O</text>
	<text transform="matrix(-0.9255 0.3788 -0.3788 -0.9255 305.4953 376.532)" class="st0 st1">P</text>
	<text transform="matrix(-0.9691 0.2467 -0.2467 -0.9691 284.3366 385.1033)" class="st0 st1">E</text>
	<text transform="matrix(-0.9944 0.1054 -0.1054 -0.9944 263.2841 390.6509)" class="st0 st1">R</text>
	<text transform="matrix(-0.9949 -0.1005 0.1005 -0.9949 229.2726 392.8595)" class="st0 st1">-</text>
	<text transform="matrix(-0.9515 -0.3077 0.3077 -0.9515 202.4015 391.6406)" class="st0 st1">B</text>
	<text transform="matrix(-0.8924 -0.4512 0.4512 -0.8924 177.7816 384.0325)" class="st0 st1">R</text>
	<text transform="matrix(-0.8089 -0.5879 0.5879 -0.8089 153.0137 370.6646)" class="st0 st1">A</text>
	<text transform="matrix(-0.7003 -0.7139 0.7139 -0.7003 131.2078 354.7836)" class="st0 st1">N</text>
	<text transform="matrix(-0.5708 -0.8211 0.8211 -0.5708 112.0077 334.8242)" class="st0 st1">D</text>
	<text transform="matrix(-0.4247 -0.9053 0.9053 -0.4247 97.0517 312.6781)" class="st0 st1">O</text>
	<text transform="matrix(-0.2614 -0.9652 0.9652 -0.2614 85.3952 288.435)" class="st0 st1">N</text>
	<text transform="matrix(-3.996804e-02 -0.9992 0.9992 -3.996804e-02 77.4483 252.8685)" class="st0 st1">S</text>
	<text transform="matrix(8.906813e-02 -0.996 0.996 8.906813e-02 76.456 231.3249)" class="st0 st1">C</text>
	<text transform="matrix(0.237 -0.9715 0.9715 0.237 77.9477 210.8364)" class="st0 st1">O</text>
	<text transform="matrix(0.3798 -0.9251 0.9251 0.3798 84.5801 184.3273)" class="st0 st1">T</text>
	<text transform="matrix(0.497 -0.8678 0.8678 0.497 92.3612 165.1868)" class="st0 st1">T</text>
	<g>
		<circle class="st2" cx="234.9" cy="235.1" r="146"/>
		<g>
			<defs>
				<circle id="SVGID_1_" cx="234.9" cy="235.1" r="146"/>
			</defs>
			<clipPath id="SVGID_2_">
				<use xlink:href="#SVGID_1_"  style="overflow:visible;"/>
			</clipPath>
			<g class="st3">
				<text transform="matrix(1 0 0 1 88.084 287.6416)" class="st4 st5">B</text>
				<text transform="matrix(1 0 0 1 88.084 287.6416)" class="st6 st4 st5">B</text>
				<text transform="matrix(1 0 0 1 214.6543 394.2139)" class="st4 st7">S</text>
			</g>
		</g>
	</g>
</g>
</svg>
