<svg xmlns="http://www.w3.org/2000/svg" xmlns:xlink="http://www.w3.org/1999/xlink" viewBox="0 0 469.9 469.91">
  <defs>
    <style>
      .cls-1 {
        fill: #fff;
      }

      .cls-2 {
        font-size: 44.81px;
        font-family: PassionOne-Regular, Passion;
        font-weight: 700;
      }

      .cls-3 {
        clip-path: url(#clip-path);
      }

      .cls-4 {
        font-size: 255.48px;
        stroke: #fff;
        stroke-miterlimit: 10;
      }

      .cls-4, .cls-6 {
        font-family: AGaramondPro-Regular, Adobe Garamond Pro;
      }

      .cls-5 {
        font-size: 10.02px;
      }

      .cls-6 {
        font-size: 258.12px;
      }
    </style>
    <clipPath id="clip-path">
      <circle class="cls-1" cx="234.96" cy="234.95" r="120.39"/>
    </clipPath>
  </defs>
  <title>Logo</title>
  <g id="Layer_2" data-name="Layer 2">
    <g id="Layer_1-2" data-name="Layer 1">
      <circle cx="234.96" cy="234.95" r="127.47"/>
      <text class="cls-2" transform="matrix(0.72, -0.69, 0.69, 0.72, 131.74, 148.85)">W</text>
      <text class="cls-2" transform="translate(153.27 129.02) rotate(-33.99)">E</text>
      <text class="cls-2" transform="translate(167.38 119.28) rotate(-25.62)">B</text>
      <text class="cls-2" transform="matrix(0.94, -0.33, 0.33, 0.94, 186.78, 110.32)"> </text>
      <text class="cls-2" transform="matrix(0.98, -0.21, 0.21, 0.98, 194.75, 107.06)">D</text>
      <text class="cls-2" transform="translate(216.77 102.35) rotate(-3.88)">E</text>
      <text class="cls-2" transform="translate(233.91 101.09) rotate(3.69)">S</text>
      <text class="cls-2" transform="translate(252.21 102.42) rotate(10.1)">I</text>
      <text class="cls-2" transform="translate(263.7 104.06) rotate(17.33)">G</text>
      <text class="cls-2" transform="translate(284.83 110.51) rotate(26.97)">N</text>
      <text class="cls-2" transform="translate(305.43 121.16) rotate(35.64)">E</text>
      <text class="cls-2" transform="translate(319.46 130.95) rotate(43.88)">R</text>
      <text class="cls-2" transform="translate(334.61 145.96) rotate(50.32)"> </text>
      <text class="cls-2" transform="matrix(0.53, 0.85, -0.85, 0.53, 340.55, 152.06)">&amp;</text>
      <text class="cls-2" transform="matrix(0.42, 0.91, -0.91, 0.42, 354.19, 174.67)"> </text>
      <text class="cls-2" transform="translate(357.96 182.77) rotate(68.97)"> </text>
      <text class="cls-2" transform="translate(361.76 190.37) rotate(77.16)">W</text>
      <text class="cls-2" transform="translate(367.85 219.04) rotate(87.11)">E</text>
      <text class="cls-2" transform="matrix(-0.09, 1, -1, -0.09, 368.93, 236.13)">B</text>
      <text class="cls-2" transform="translate(366.65 257.39) rotate(101.69)"> </text>
      <text class="cls-2" transform="translate(365.35 265.92) rotate(108.37)">D</text>
      <text class="cls-2" transform="translate(358.13 287.27) rotate(116.84)">E</text>
      <text class="cls-2" transform="matrix(-0.58, 0.82, -0.82, -0.58, 350.62, 302.64)">V</text>
      <text class="cls-2" transform="matrix(-0.69, 0.73, -0.73, -0.69, 338.11, 320.24)">E</text>
      <text class="cls-2" transform="matrix(-0.77, 0.64, -0.64, -0.77, 326.23, 332.75)">L</text>
      <text class="cls-2" transform="matrix(-0.85, 0.52, -0.52, -0.85, 314.67, 342.71)">O</text>
      <text class="cls-2" transform="translate(295.03 354.64) rotate(157.74)">P</text>
      <text class="cls-2" transform="translate(276.66 362.13) rotate(165.72)">E</text>
      <text class="cls-2" transform="translate(260.15 366.56) rotate(173.95)">R</text>
      <text class="cls-2" transform="translate(238.89 368.5) rotate(-179.61)"> </text>
      <text class="cls-2" transform="matrix(-0.99, -0.1, 0.1, -0.99, 230.17, 368.68)">-</text>
      <text class="cls-2" transform="matrix(-0.98, -0.2, 0.2, -0.98, 212.91, 366.7)"> </text>
      <text class="cls-2" transform="translate(204.36 365.37) rotate(-162.08)">B</text>
      <text class="cls-2" transform="matrix(-0.89, -0.45, 0.45, -0.89, 184.25, 358.95)">R</text>
      <text class="cls-2" transform="translate(165.45 349.52) rotate(-143.99)">A</text>
      <text class="cls-2" transform="translate(148.22 337.21) rotate(-134.45)">N</text>
      <text class="cls-2" transform="matrix(-0.57, -0.82, 0.82, -0.57, 132.01, 320.78)">D</text>
      <text class="cls-2" transform="translate(119.13 302.42) rotate(-115.13)">O</text>
      <text class="cls-2" transform="matrix(-0.26, -0.96, 0.96, -0.26, 109.29, 281.7)">N</text>
      <text class="cls-2" transform="translate(103.53 259.06) rotate(-98.34)"> </text>
      <text class="cls-2" transform="matrix(-0.04, -1, 1, -0.04, 101.99, 250.49)">S</text>
      <text class="cls-2" transform="translate(101.15 232.3) rotate(-84.89)">C</text>
      <text class="cls-2" transform="translate(102.41 215) rotate(-76.29)">O</text>
      <text class="cls-2" transform="translate(108.01 192.62) rotate(-67.68)">T</text>
      <text class="cls-2" transform="translate(114.58 176.46) rotate(-60.2)">T</text>
      <g>
        <circle class="cls-1" cx="234.96" cy="234.95" r="120.39"/>
        <g class="cls-3">
          <text class="cls-4" transform="translate(113.86 278.3)">B<tspan class="cls-5" x="154.56" y="0"> </tspan></text>
          <text class="cls-6" transform="translate(218.23 366.18)">S</text>
        </g>
      </g>
    </g>
  </g>
</svg>
