<?xml version="1.0" encoding="utf-8"?>
<!-- Generator: Adobe Illustrator 21.0.0, SVG Export Plug-In . SVG Version: 6.00 Build 0)  -->
<svg version="1.1" id="Layer_1" xmlns="http://www.w3.org/2000/svg" xmlns:xlink="http://www.w3.org/1999/xlink" x="0px" y="0px"
	 viewBox="0 0 469.9 469.9" style="enable-background:new 0 0 469.9 469.9;" xml:space="preserve">
<style type="text/css">
	.st0{enable-background:new    ;}
	.st1{fill:#FFFFFF;}
	.st2{clip-path:url(#SVGID_2_);}
</style>
<title>Logo</title>
<g id="Layer_1-2">
	<g>
		<circle cx="234.9" cy="235.1" r="154.6"/>
	</g>
	<g class="st0">
		<path d="M118,86.9l18.2,23.6l-8.2,7.9l-9.9-7.1l-0.3,0.3l6.9,10l-8.2,7.9l-23.2-18.9l6.8-6.5l10.3,9l0.3-0.3l-8.1-11.1l6.5-6.2
			l10.9,8.4l0.2-0.2l-8.8-10.5L118,86.9z"/>
	</g>
	<g class="st0">
		<path d="M154.1,98l-15.7,10.6L121.8,84L138.1,73l3.9,6.9l-7.2,4.9l2,3l6.3-4.2l3.8,5.7l-6.3,4.2l2.3,3.4l7.8-5.2L154.1,98z"/>
	</g>
	<g class="st0">
		<path d="M174.5,78.3c2.5,5.2,0.5,9.4-6,12.5l-12.2,5.8l-12.8-26.7l12-5.8c3.2-1.5,5.9-2.1,8-1.7c2.1,0.4,3.7,1.8,4.8,4.2
			s1,4.7-0.4,7l0.1,0.2C170.9,73.7,173.1,75.2,174.5,78.3z M160.3,75c0.1-0.5-0.1-1.1-0.5-2c-0.4-0.8-0.8-1.4-1.2-1.7
			c-0.4-0.3-0.9-0.3-1.5,0l-1.2,0.6l2.3,4.7l1.3-0.6C159.9,75.8,160.2,75.4,160.3,75z M165.6,85.1c0.1-0.5-0.1-1.2-0.6-2.3
			c-0.5-1.1-1-1.7-1.5-2.1c-0.5-0.3-1.1-0.3-1.8,0.1l-1.2,0.6l2.6,5.5l1.2-0.6C165,85.9,165.5,85.5,165.6,85.1z"/>
	</g>
	<g class="st0">
		<path d="M210.8,62.1c2.2,10.1-1.4,16.1-10.6,18.1L189,82.6l-6.2-29l11.5-2.5c5-1.1,8.7-0.6,11.3,1.3
			C208.1,54.4,209.8,57.6,210.8,62.1z M201.3,70.6c0.2-1.2,0.1-3.1-0.5-5.6c-0.5-2.5-1.2-4.3-1.9-5.3c-0.7-1-1.9-1.3-3.5-0.9l-1,0.2
			l3,14.1l1.2-0.3C200.1,72.6,201,71.8,201.3,70.6z"/>
	</g>
	<g class="st0">
		<path d="M233.1,76l-18.9,1.3l-2-29.6l19.5-1.3l-0.1,7.9l-8.7,0.6l0.2,3.6l7.6-0.5l0.5,6.9l-7.6,0.5l0.3,4l9.3-0.6L233.1,76z"/>
	</g>
	<g class="st0">
		<path d="M235.6,55.8c0.2-3.1,1.3-5.5,3.3-7.2c2-1.6,4.7-2.3,8.1-2.1c3.4,0.2,6.9,0.8,10.4,1.6l-1.6,8.3c-3.9-1-6.5-1.6-7.7-1.7
			c-1.2-0.1-1.9,0.3-1.9,1c0,0.3,0.1,0.5,0.2,0.6c0.2,0.1,0.3,0.2,0.4,0.3c0.1,0.1,0.3,0.2,0.5,0.3c0.3,0.1,0.5,0.2,0.7,0.3
			c0.2,0.1,0.7,0.4,1.7,0.8c0.9,0.5,1.7,0.8,2.1,1.1c0.5,0.3,1.1,0.7,1.9,1.3c2.4,1.8,3.5,4.2,3.3,7.4c-0.2,3.1-1.3,5.5-3.3,7.1
			c-2,1.6-4.7,2.3-8.2,2.1c-3.5-0.2-6.9-0.9-10.2-2l1.2-8c4.2,1.4,7,2.1,8.5,2.2c1,0.1,1.5-0.3,1.5-1c0-0.3-0.1-0.6-0.3-0.8
			s-0.6-0.4-1-0.7c-0.4-0.3-1.1-0.6-2-1c-0.9-0.4-1.6-0.8-2.2-1.1c-0.6-0.3-1.3-0.8-2.1-1.4C236.5,61.5,235.4,59,235.6,55.8z"/>
	</g>
	<g class="st0">
		<path d="M267.6,79.6l-9.9-1.8l5.2-29.2l9.9,1.8L267.6,79.6z"/>
	</g>
	<g class="st0">
		<path d="M284.4,76.5c0.5,0.2,1.3,0.3,2.3,0.4l0.9-2.7l-2.3-0.7l2-6.3l10.8,3.4l-5.1,16.3l-6.9-2.1l-0.2-1.7l-0.2-0.1
			c-2,0.8-4,0.8-6.2,0.2c-7.1-2.2-9.2-8.1-6.2-17.7c1.5-4.8,3.6-8.2,6.3-10.1c2.7-1.9,6.4-2.2,11-0.8c3.4,1.1,6.5,2.5,9.2,4.4
			l-4.2,8.1c-3.1-2-5.4-3.2-6.9-3.7c-1.5-0.5-2.6-0.3-3.4,0.5c-0.8,0.8-1.5,2.4-2.3,4.7c-0.7,2.3-1,4.1-0.9,5.4
			C282.2,75.2,283,76.1,284.4,76.5z"/>
	</g>
	<g class="st0">
		<path d="M318.1,99.4l-8.7-4.4l-0.1-13.2l-0.3-0.2l-5.3,10.4l-8.1-4.1l13.5-26.4l9,4.6l-0.5,13.3l0.3,0.1l5.5-10.8l8.2,4.2
			L318.1,99.4z"/>
	</g>
	<g class="st0">
		<path d="M335.3,111.8l-15.4-11l17.3-24.1l15.9,11.4l-5.1,6l-7.1-5.1l-2.1,2.9l6.2,4.4l-4,5.6l-6.2-4.4l-2.4,3.3l7.6,5.5
			L335.3,111.8z"/>
	</g>
	<g class="st0">
		<path d="M368.1,115.1c-1.3,1.4-2.6,2.3-3.8,2.6c-1.2,0.4-2.6,0.4-4.2,0.1l-5.5,12.1l-7.6-7.3l5-9.4l-0.6-0.5l-7.1,7.4l-7.1-6.8
			l20.6-21.4l9.1,8.8c2.7,2.6,4.1,5,4.3,7.3C371.5,110.4,370.4,112.7,368.1,115.1z M357.8,109.8c0.5-0.1,1.1-0.5,1.9-1.3
			c0.8-0.8,1.2-1.4,1.2-1.9c0.1-0.5-0.2-1-0.6-1.5l-0.9-0.9l-4,4.2l0.9,0.8C356.7,109.7,357.3,109.9,357.8,109.8z"/>
	</g>
	<g class="st0">
		<path d="M366.2,147.1c-2-3.2-2.9-6-2.6-8.2c0.3-2.2,1.8-4.3,4.7-6c1.9-1.2,3.5-1.7,5-1.5c1.5,0.1,3,0.8,4.5,1.9
			c0.7-2.3,2-4.1,4.1-5.4c4.3-2.7,8.3-1.1,11.9,4.7c3.6,5.8,3.2,10.1-1.2,12.8c-1.8,1.1-3.3,1.6-4.6,1.5c-1.3-0.1-3.1-0.7-5.4-1.9
			l-1.4,5l0.1,0.2l3.8-2.4l4,6.4l-3,1.8c-2,1.2-4,1.5-6,0.7l-0.2,0.1l2.1,3.4l-6.1,2.8l-2.4-3.8c-1.2-1.9-1.8-3.8-1.7-5.5l-0.2-0.3
			c-1-0.6-1.9-1.3-2.7-2.2C368.3,150.3,367.4,149,366.2,147.1z M373.1,140.9c-1.3,0.8-1.6,1.9-0.7,3.3l1.3,2.1l0.2-0.1l1.4-5.7
			C374.7,140.3,374,140.4,373.1,140.9z M386.7,139c0.8-0.5,1-1.2,0.4-2s-1.1-1-1.9-0.5c-0.4,0.2-0.6,0.4-0.6,0.6s-0.1,0.3-0.2,0.4
			c0,0.1-0.1,0.2-0.1,0.3c0,0.2-0.1,0.3-0.1,0.3c0,0.1,0,0.2-0.1,0.4s-0.1,0.3-0.1,0.4c0.7,0.3,1.2,0.4,1.5,0.4
			C386,139.3,386.4,139.2,386.7,139z"/>
	</g>
	<g class="st0">
		<path d="M421.8,209.3l-29.6,3.5l-2.5-11.1l11.2-4.9l-0.1-0.4l-12.2,0.8l-2.5-11.1l28.1-10.2l2.1,9.1l-13,4.2l0.1,0.4l13.7-1.3
			l2,8.8l-12.8,5l0.1,0.3l13.5-2.1L421.8,209.3z"/>
	</g>
	<g class="st0">
		<path d="M393.4,234.7l-1-18.9l29.6-1.5l1,19.6l-7.9-0.3l-0.4-8.7l-3.6,0.2l0.4,7.6l-6.9,0.3l-0.4-7.6l-4.1,0.2l0.5,9.3
			L393.4,234.7z"/>
	</g>
	<g class="st0">
		<path d="M399.9,262.8c-5.8-0.5-8.3-4.4-7.7-11.5l1.2-13.5l29.5,2.7l-1.2,13.3c-0.3,3.6-1.2,6.1-2.6,7.7c-1.4,1.6-3.4,2.3-6.1,2
			c-2.6-0.2-4.6-1.5-5.8-3.9l-0.2,0C405.7,262,403.3,263.1,399.9,262.8z M398.7,251.6c0.3,0.3,1.1,0.5,2.3,0.6c1.2,0.1,2,0,2.5-0.2
			c0.5-0.3,0.8-0.8,0.9-1.6l0.1-1.4l-6.1-0.5l-0.1,1.4C398.2,250.7,398.4,251.2,398.7,251.6z M410.1,252.2c0.4,0.3,1,0.5,1.9,0.6
			c0.9,0.1,1.6,0,2.1-0.2c0.4-0.2,0.7-0.7,0.7-1.3l0.1-1.4l-5.2-0.5l-0.1,1.4C409.6,251.4,409.7,251.9,410.1,252.2z"/>
	</g>
	<g class="st0">
		<path d="M395.4,302.2c-9.8-3.3-13.2-9.3-10.2-18.3l3.6-10.9l28.1,9.3l-3.7,11.1c-1.6,4.8-3.9,7.8-6.9,9S399.7,303.6,395.4,302.2z
			 M392.9,289.6c0.9,0.8,2.6,1.6,5.1,2.4c2.5,0.8,4.3,1.1,5.5,1c1.2-0.2,2.1-1,2.6-2.6l0.3-1l-13.7-4.5l-0.4,1.1
			C391.8,287.6,392,288.8,392.9,289.6z"/>
	</g>
	<g class="st0">
		<path d="M371.4,315l8.5-16.9l26.5,13.4l-8.8,17.5l-6.7-4.2l3.9-7.8l-3.2-1.6l-3.4,6.8l-6.1-3.1l3.4-6.8l-3.6-1.8l-4.2,8.4
			L371.4,315z"/>
	</g>
	<g class="st0">
		<path d="M380.6,353.8L359.7,332l8.5-12l27.7,12.2l-6.4,9l-16.2-8.6L373,333l13.7,12.2L380.6,353.8z"/>
	</g>
	<g class="st0">
		<path d="M344.5,349.3l13-13.7l21.6,20.4l-13.5,14.2l-5.3-5.9l6-6.3l-2.6-2.5l-5.2,5.5l-5-4.7l5.2-5.5l-3-2.8l-6.4,6.8L344.5,349.3
			z"/>
	</g>
	<g class="st0">
		<path d="M328.3,362.7l13.7-11.4l19,22.8l-7.9,6.5l-14-16.9l-6.4,5.3L328.3,362.7z"/>
	</g>
	<g class="st0">
		<path d="M335.2,375.7c2.8,4.5,3.9,8.4,3.3,11.5c-0.6,3.1-2.9,6-7.1,8.5c-4.1,2.5-7.7,3.3-10.7,2.4c-3-0.9-5.9-3.6-8.7-8.2
			s-3.9-8.4-3.4-11.7c0.5-3.3,2.8-6.2,6.9-8.7c4.1-2.5,7.7-3.2,10.8-2.2C329.5,368.4,332.4,371.2,335.2,375.7z M324.3,389.1
			c0.8,0.5,1.7,0.4,2.9-0.4c1.2-0.7,1.7-1.5,1.6-2.4s-0.8-2.4-2.2-4.7l-1.1-1.8c-1.4-2.3-2.5-3.7-3.2-4.1c-0.8-0.5-1.8-0.3-2.9,0.4
			c-1.2,0.7-1.7,1.5-1.6,2.3c0.1,0.8,0.8,2.4,2.2,4.6l1.1,1.9C322.4,387.2,323.5,388.6,324.3,389.1z"/>
	</g>
	<g class="st0">
		<path d="M296.1,390.4l1.9-0.8l-3.5-8.6l9.3-3.8l11.2,27.4l-10.7,4.4c-3.6,1.5-6.6,1.8-8.8,1c-2.3-0.8-4.1-2.9-5.5-6.3
			s-1.6-6.1-0.6-8.2C290.4,393.5,292.6,391.8,296.1,390.4z M298.2,397c-0.1,0.6,0.1,1.4,0.6,2.5c0.5,1.1,0.9,1.9,1.4,2.2
			c0.5,0.4,1.1,0.4,1.9,0.1l0.9-0.4l-2.5-6.2l-1.1,0.5C298.6,396,298.3,396.4,298.2,397z"/>
	</g>
	<g class="st0">
		<path d="M264.2,390.2l18.3-4.7l7.3,28.7l-19,4.8l-1.3-7.8l8.4-2.1l-0.9-3.5l-7.4,1.9l-1.7-6.7l7.4-1.9l-1-3.9l-9.1,2.3
			L264.2,390.2z"/>
	</g>
	<g class="st0">
		<path d="M240.2,413.3c-0.2-1.9-0.1-3.4,0.4-4.6c0.5-1.2,1.4-2.3,2.6-3.3l-5.7-12l10.5-1.1l4,9.9l0.8-0.1l-1.1-10.2l9.7-1l3.1,29.5
			l-12.6,1.3c-3.7,0.4-6.5-0.1-8.4-1.4C241.7,418.9,240.5,416.6,240.2,413.3z M250.9,408.8c-0.3,0.5-0.3,1.2-0.2,2.3
			c0.1,1.1,0.4,1.8,0.7,2.2c0.4,0.4,0.9,0.5,1.5,0.5l1.2-0.1l-0.6-5.7l-1.2,0.1C251.6,408,251.1,408.3,250.9,408.8z"/>
	</g>
	<g class="st0">
		<path d="M210.8,399.6l16.1,1.6l-0.8,7.7l-16.1-1.6L210.8,399.6z"/>
	</g>
	<g class="st0">
		<path d="M174.8,391.8c1.8-5.5,6.1-7.2,12.9-5l12.9,4.2l-9.1,28.2l-12.7-4.1c-3.4-1.1-5.7-2.5-6.9-4.3c-1.2-1.7-1.4-3.9-0.6-6.4
			c0.8-2.5,2.5-4.1,5.1-4.8l0.1-0.2C174.3,397.7,173.7,395.1,174.8,391.8z M182.8,404.1c-0.4,0.3-0.7,0.9-1,1.8
			c-0.3,0.9-0.4,1.6-0.2,2.1c0.1,0.5,0.5,0.8,1.1,1l1.3,0.4l1.6-5l-1.4-0.4C183.7,403.8,183.2,403.8,182.8,404.1z M186,393.1
			c-0.4,0.3-0.8,1-1.1,2.1c-0.4,1.1-0.5,2-0.3,2.5c0.1,0.6,0.6,1,1.4,1.2l1.3,0.4l1.9-5.8l-1.3-0.4
			C186.9,392.9,186.3,392.9,186,393.1z"/>
	</g>
	<g class="st0">
		<path d="M146.1,390.5c0.9-1.7,1.8-2.9,2.9-3.7c1.1-0.7,2.4-1.2,3.9-1.4l1.7-13.2l9.4,4.8l-2,10.5l0.7,0.3l4.6-9.1l8.7,4.4
			l-13.4,26.5l-11.3-5.7c-3.3-1.7-5.4-3.6-6.2-5.8C144.3,396,144.6,393.5,146.1,390.5z M157.5,392.5c-0.5,0.2-0.9,0.9-1.4,1.8
			c-0.5,1-0.7,1.7-0.6,2.2c0.1,0.5,0.4,0.9,1,1.2l1.1,0.6l2.6-5.2l-1.1-0.5C158.5,392.3,158,392.2,157.5,392.5z"/>
	</g>
	<g class="st0">
		<path d="M131.3,354.9l8.1,5.9l-1.9,4.3l4.3,3.1l3.5-3.1l7.8,5.6L130.6,391l-11.8-8.6L131.3,354.9z M134.4,370.4l-4.4,9.1l0.2,0.1
			l7.3-6.9L134.4,370.4z"/>
	</g>
	<g class="st0">
		<path d="M112.2,335.5l6.8,7l-4.1,12.5l0.2,0.2l8.4-8.2l6.4,6.5l-21.2,20.8l-7.1-7.2l4.7-12.5l-0.2-0.2l-8.6,8.5l-6.4-6.5
			L112.2,335.5z"/>
	</g>
	<g class="st0">
		<path d="M83.6,321c8.5-5.9,15.4-5,20.8,2.8l6.6,9.5l-24.4,16.9l-6.7-9.6c-2.9-4.2-3.9-7.8-3.1-10.9
			C77.5,326.5,79.8,323.6,83.6,321z M95.1,326.5c-1.2,0.2-2.8,1.1-5,2.6c-2.1,1.5-3.5,2.8-4.1,3.8c-0.6,1.1-0.4,2.3,0.5,3.6l0.6,0.8
			l11.8-8.2l-0.7-1C97.4,326.8,96.3,326.3,95.1,326.5z"/>
	</g>
	<g class="st0">
		<path d="M83,318.2c-4.8,2.3-8.7,2.9-11.8,2c-3.1-0.9-5.6-3.6-7.7-7.9c-2.1-4.4-2.5-8-1.2-10.9c1.2-2.9,4.3-5.5,9.1-7.7
			c4.8-2.3,8.8-2.9,12-2.1c3.2,0.9,5.8,3.5,7.9,7.8c2,4.3,2.4,8,1,11C90.9,313.3,87.8,315.9,83,318.2z M71,305.9
			c-0.6,0.7-0.5,1.7,0,2.9c0.6,1.2,1.3,1.9,2.2,1.9c0.9,0,2.5-0.5,4.9-1.7l1.9-0.9c2.4-1.1,3.9-2.1,4.4-2.8c0.5-0.7,0.5-1.7-0.1-3
			c-0.6-1.3-1.3-1.9-2.2-1.9c-0.8,0-2.5,0.6-4.9,1.7l-2,0.9C73,304.2,71.5,305.1,71,305.9z"/>
	</g>
	<g class="st0">
		<path d="M78.3,262.3l2.5,9.4l-9.7,8.9l0.1,0.3l11.3-3.1l2.4,8.8l-28.6,7.8l-2.6-9.7l10.2-8.6l-0.1-0.3l-11.7,3.2l-2.4-8.9
			L78.3,262.3z"/>
	</g>
	<g class="st0">
		<path d="M57.3,253.2c-3.1,0.1-5.6-0.7-7.5-2.6c-1.8-1.8-2.8-4.5-2.9-7.8c-0.1-3.4,0-6.9,0.5-10.5l8.4,0.8c-0.6,4-0.9,6.6-0.9,7.9
			c0,1.2,0.5,1.8,1.2,1.8c0.3,0,0.5-0.1,0.6-0.3c0.1-0.2,0.2-0.3,0.2-0.4c0.1-0.1,0.1-0.3,0.2-0.6c0.1-0.3,0.2-0.5,0.2-0.7
			c0.1-0.2,0.3-0.8,0.6-1.7c0.4-1,0.6-1.7,0.9-2.2c0.2-0.5,0.6-1.2,1.1-2.1c1.5-2.5,3.9-3.9,7-4c3.1-0.1,5.6,0.7,7.4,2.5
			c1.8,1.8,2.8,4.5,2.9,8c0.1,3.5-0.2,7-0.9,10.4l-8.1-0.3c0.9-4.3,1.3-7.2,1.3-8.7c0-1-0.4-1.5-1.1-1.4c-0.3,0-0.6,0.1-0.7,0.4
			c-0.2,0.2-0.4,0.6-0.6,1.1c-0.2,0.5-0.5,1.2-0.8,2.1c-0.3,0.9-0.6,1.7-0.9,2.3c-0.2,0.6-0.6,1.3-1.2,2.2
			C62.8,251.7,60.4,253.1,57.3,253.2z"/>
	</g>
	<g class="st0">
		<path d="M63,218.8c2.4,0.2,4.2,0.1,5.3-0.3c1.1-0.4,1.8-1.3,1.9-2.6c0.1-1.3,0-3.4-0.5-6.4l7.7-0.8c0.7,3.2,0.9,6.2,0.7,9.1
			c-0.4,4.4-1.9,7.5-4.6,9.3c-2.7,1.8-6.5,2.5-11.5,2s-8.7-1.8-11.2-4.2c-2.5-2.3-3.5-5.9-3.1-10.6c0.2-2.8,1-5.5,2.4-8.1l8.3,2.3
			c-1.2,3.1-1.9,5.2-2,6.3c-0.1,1.2,0.4,2.1,1.4,2.7C58.9,218.2,60.6,218.6,63,218.8z"/>
	</g>
	<g class="st0">
		<path d="M63.6,206.3c-5.2-1.3-8.6-3.2-10.5-5.8c-1.8-2.6-2.2-6.3-1-11c1.2-4.7,3.1-7.8,5.9-9.3c2.8-1.5,6.8-1.6,11.9-0.3
			c5.2,1.3,8.7,3.2,10.7,5.9s2.4,6.4,1.2,11s-3.2,7.7-6.1,9.2C72.8,207.5,68.7,207.6,63.6,206.3z M61.9,189.2
			c-0.9,0.2-1.5,1-1.8,2.3c-0.3,1.3-0.1,2.3,0.5,2.8c0.7,0.6,2.3,1.1,4.8,1.8l2,0.5c2.6,0.6,4.3,0.8,5.2,0.6c0.9-0.2,1.5-1,1.8-2.4
			c0.3-1.4,0.2-2.3-0.5-2.8c-0.7-0.5-2.3-1.1-4.8-1.7l-2.1-0.5C64.5,189.2,62.8,189,61.9,189.2z"/>
	</g>
	<g class="st0">
		<path d="M73.2,155.2l-2.4,5.8l20,8.2l-3.9,9.4l-20-8.2l-2.5,6.1l-7.3-3.5l8.8-21.5L73.2,155.2z"/>
	</g>
	<g class="st0">
		<path d="M84.9,134.8l-3.1,5.5l18.7,10.7l-5.1,8.8l-18.7-10.7l-3.3,5.8l-6.8-4.4l11.6-20.2L84.9,134.8z"/>
	</g>
	<g>
		<g>
			<g>
				<circle class="st1" cx="234.9" cy="235.1" r="146"/>
			</g>
		</g>
		<g>
			<defs>
				<circle id="SVGID_1_" cx="234.9" cy="235.1" r="146"/>
			</defs>
			<clipPath id="SVGID_2_">
				<use xlink:href="#SVGID_1_"  style="overflow:visible;"/>
			</clipPath>
			<g class="st2">
				<g class="st0">
					<g>
						<path d="M127.7,123.4c0-22.9-1.2-28.8-15.2-30.1l-9.9-0.9c-2.5-1.9-2.2-6.5,0.3-7.7c16.7-1.5,37.8-2.5,66.6-2.5
							c19.5,0,38.1,1.5,52,8.7c13.3,6.5,23.5,18.9,23.5,38.7c0,22.3-13,33.8-31.6,42.4c0,3.1,2.5,4,5.9,4.6
							c16.7,3.1,41.5,18.6,41.5,51.7c0,35.9-26.6,60.1-82.4,60.1c-9,0-24.2-0.9-37.2-0.9c-13.6,0-24.2,0.6-35.6,0.9
							c-1.9-0.9-2.5-5.9-0.6-7.7l5.6-0.9c16.4-2.8,17-6.2,17-38.7V123.4z M153.1,164.6c0,8.7,0.3,9.3,16.1,8.7
							c31.6-1.2,48.6-10.5,48.6-39.7c0-30.4-22.6-41.8-46.2-41.8c-6.8,0-11.5,0.6-14.3,1.9c-3.1,0.9-4.3,2.5-4.3,8.1V164.6z
							 M153.1,236.5c0,11.2,0.6,27,6.5,33.8c5.9,7.1,15.2,8.7,24.5,8.7c27.6,0,48.6-12.4,48.6-43.4c0-24.5-12.4-53-61.7-53
							c-16.7,0-18,1.9-18,8.1V236.5z"/>
					</g>
				</g>
				<g class="st0">
					<g>
						<path class="st1" d="M105.6,289.1l-0.1-0.1c-0.9-0.5-1.6-1.7-1.9-3.4c-0.3-1.6-0.1-3.9,1.2-5.2l0.1-0.1l5.7-1
							c16.2-2.7,16.6-5.8,16.6-38.2V123.4c0-23.3-1.3-28.4-14.7-29.6l-10.1-0.9l-0.1-0.1c-1.3-1-2.1-2.8-1.9-4.8
							c0.2-1.8,1-3.2,2.3-3.8l0.2-0.1c18-1.7,39.8-2.5,66.7-2.5c16.4,0,37.1,1,52.3,8.7c15.4,7.5,23.8,21.4,23.8,39.2
							c0,24.5-15.9,35.4-31.6,42.8c0.2,2.4,2.1,3.2,5.5,3.8c14.5,2.7,41.9,17.1,41.9,52.2c0,38.5-30.2,60.6-82.9,60.6
							c-4.1,0-9.5-0.2-15.3-0.4c-6.9-0.2-14.8-0.5-21.9-0.5c-9.3,0-17.1,0.3-24.8,0.6c-3.6,0.1-7.2,0.3-10.8,0.4L105.6,289.1z
							 M141.4,287.1c7.1,0,15,0.3,21.9,0.5c5.8,0.2,11.2,0.4,15.3,0.4c26.9,0,47.7-5.5,61.8-16.5c13.1-10.2,20.1-25.1,20.1-43.1
							c0-34.5-26.9-48.6-41.1-51.2c-3-0.6-6.3-1.5-6.3-5.1v-0.3l0.3-0.1c15.5-7.2,31.3-17.9,31.3-42c0-22.2-12.7-33.1-23.3-38.3
							c-15-7.6-35.6-8.6-51.8-8.6c-26.7,0-48.5,0.8-66.5,2.5c-0.9,0.5-1.5,1.6-1.6,3c-0.1,1.5,0.4,3,1.4,3.8l9.8,0.9
							c14.1,1.3,15.6,7.3,15.6,30.6v117.7c0,32.7-0.6,36.4-17.5,39.2l-5.4,0.9c-0.7,0.8-1,2.5-0.8,4.2c0.2,1.2,0.7,2.2,1.3,2.6
							c3.6-0.1,7.1-0.2,10.7-0.4C124.2,287.4,132.1,287.1,141.4,287.1z M184.1,279.5c-7.5,0-18.3-0.9-24.9-8.9
							c-5.9-6.9-6.6-22.7-6.6-34.1v-45.9c0-6.8,2.2-8.6,18.5-8.6c22.4,0,39.1,5.9,49.7,17.5c10.3,11.4,12.5,25.8,12.5,36
							C233.3,263.9,215.8,279.5,184.1,279.5z M171.1,183.1c-16.7,0-17.5,1.8-17.5,7.6v45.9c0,11.2,0.7,26.8,6.4,33.4
							c6.3,7.6,16.8,8.5,24.1,8.5c18,0,48.1-5.6,48.1-42.9C232.3,216,224.3,183.1,171.1,183.1z M162.5,174c-4.5,0-7-0.4-8.3-1.7
							c-1.5-1.4-1.6-3.7-1.6-7.6v-62.9c0-5.4,1.1-7.5,4.7-8.5c2.8-1.3,7.5-1.9,14.4-1.9c9,0,21.9,1.7,32.2,9.6
							c9.6,7.4,14.4,18.4,14.4,32.7c0,27.2-14.2,38.8-49.1,40.2C166.6,173.9,164.4,174,162.5,174z M171.7,92.3
							c-6.7,0-11.3,0.6-14,1.8c-2.9,0.9-4,2.1-4,7.6v62.9c0,3.7,0.1,5.8,1.2,6.9c1.6,1.6,5.8,1.6,14.3,1.3
							c34.2-1.3,48.2-12.7,48.2-39.2C217.4,95.3,182.4,92.3,171.7,92.3z"/>
					</g>
				</g>
				<g class="st0">
					<g>
						<path d="M284.8,399.2c-26.3,0-42.9-8.1-48.8-11.6c-3.8-6.9-7.8-29.1-8.5-43.8c1.6-2.2,6.3-2.8,7.5-0.9
							c4.7,16,17.5,46.6,53.8,46.6c26.3,0,39.1-17.2,39.1-36c0-13.8-2.8-29.1-25.7-43.8l-29.7-19.4c-15.7-10.3-33.8-28.2-33.8-53.8
							c0-29.7,23.2-53.8,63.9-53.8c9.7,0,21,1.9,29.1,4.1c4.1,1.3,8.5,1.9,11,1.9c2.8,7.5,5.6,25,5.6,38.2c-1.3,1.9-6.3,2.8-7.8,0.9
							c-4.1-15-12.5-35.4-42.6-35.4c-30.7,0-37.2,20.3-37.2,34.7c0,18.2,15,31.3,26.6,38.5l25,15.7c19.7,12.2,39.1,30.4,39.1,60.1
							C351.4,375.7,325.5,399.2,284.8,399.2z"/>
					</g>
				</g>
			</g>
		</g>
	</g>
</g>
</svg>
