<?xml version="1.0" encoding="iso-8859-1"?>
<!-- Generator: Adobe Illustrator 19.0.0, SVG Export Plug-In . SVG Version: 6.00 Build 0)  -->
<svg version="1.1" id="Capa_1" xmlns="http://www.w3.org/2000/svg" xmlns:xlink="http://www.w3.org/1999/xlink" x="0px" y="0px"
	 viewBox="0 0 489 489" style="enable-background:new 0 0 489 489;" xml:space="preserve">
<g>
	<path d="M244.5,0C109.3,0,0,109.3,0,244.5S109.3,489,244.5,489C379.8,489,489,379.8,489,244.5S379.8,0,244.5,0z M447.4,223.7h-68.1
		c-2.9-64.7-19-121.4-43.7-161.6C396.5,92.7,440.2,152.9,447.4,223.7z M223.7,46.4v177.3h-73.3C154.9,133,188.3,65.9,223.7,46.4z
		 M223.7,265.3v177.4c-35.5-19.3-68.9-85.9-73.4-177.4H223.7z M265.3,442.6V265.3h73.3C334.2,356.1,300.8,423.1,265.3,442.6z
		 M265.3,223.7V46.4c35.5,19.3,68.9,85.9,73.4,177.4h-73.4V223.7z M153.5,62.1c-24.7,40.1-40.9,96.9-43.7,161.6H41.7
		C48.9,152.9,92.5,92.7,153.5,62.1z M41.7,265.3h68.1c2.9,64.7,19,121.4,43.7,161.6C92.5,396.3,48.9,336.1,41.7,265.3z M335.6,426.9
		c24.7-40.1,40.9-96.9,43.7-161.6h68.1C440.2,336.1,396.5,396.3,335.6,426.9z"/>
</g>
<g>
</g>
<g>
</g>
<g>
</g>
<g>
</g>
<g>
</g>
<g>
</g>
<g>
</g>
<g>
</g>
<g>
</g>
<g>
</g>
<g>
</g>
<g>
</g>
<g>
</g>
<g>
</g>
<g>
</g>
</svg>
